<svg width="19" height="19" viewBox="0 0 19 19" fill="none" xmlns="http://www.w3.org/2000/svg">
<g clip-path="url(#clip0_1_14)">
<path d="M2.19 5.67V11.8575C2.19 12.8785 2.7365 13.0995 2.7365 13.0995L8.5235 17.649C9.4345 18.365 9.19 16.8575 9.19 16.8575V11.17L2.19 5.67Z" fill="#662113"/>
<path d="M16.19 5.67V11.8575C16.19 12.8785 15.6585 13.0995 15.6585 13.0995C15.6585 13.0995 10.775 16.933 9.8645 17.649C8.953 18.365 9.19 16.8575 9.19 16.8575V11.17L16.19 5.67Z" fill="#C1694F"/>
<path d="M9.83451 0.420004C9.45801 0.115004 8.84051 0.115004 8.46351 0.420004L2.47251 5.1845C2.09551 5.4895 2.09551 5.988 2.47251 6.2925L8.48401 11.1155C8.86101 11.42 9.47851 11.42 9.85551 11.1155L15.9075 6.2505C16.2845 5.946 16.2845 5.4475 15.9075 5.1425L9.83451 0.420004Z" fill="#D99E82"/>
<path d="M9.19 18.045C8.914 18.045 8.69 17.804 8.69 17.506V11.0425C8.69 10.7445 8.914 10.5035 9.19 10.5035C9.4665 10.5035 9.69 10.7445 9.69 11.0425V17.506C9.69 17.804 9.4665 18.045 9.19 18.045Z" fill="#D99E82"/>
<path d="M14.19 9.58799C14.19 10.14 14.242 10.411 13.69 10.809L12.4555 11.748C11.9035 12.1465 11.69 11.8045 11.69 11.252V9.77149C11.69 9.67499 11.677 9.57149 11.551 9.46749C10.262 8.40499 5.257 4.42949 4.345 3.69549L6.6575 1.85649C7.2905 2.31949 12.034 5.98249 14.0185 7.54499C14.117 7.62299 14.19 7.70899 14.19 7.80299V9.58799Z" fill="#99AAB5"/>
<path d="M14.018 7.54499C12.034 5.98249 7.2905 2.31949 6.6575 1.85649L5.797 2.54049L4.345 3.69549C5.2575 4.42949 10.262 8.40499 11.551 9.46749C11.6265 9.52999 11.6595 9.59249 11.675 9.65299L14.1415 7.66999C14.1115 7.62649 14.0685 7.58449 14.018 7.54499Z" fill="#CCD6DD"/>
<path d="M14.19 9.58799V7.80299C14.19 7.70899 14.117 7.62349 14.018 7.54499C12.034 5.98249 7.2905 2.31949 6.6575 1.85649L5.621 2.68099C7.3175 4.01549 11.8615 7.52149 13.051 8.46749C13.179 8.56949 13.19 8.67499 13.19 8.77149V11.1895L13.69 10.809C14.242 10.4105 14.19 10.14 14.19 9.58799Z" fill="#CCD6DD"/>
<path d="M14.018 7.54499C12.034 5.98249 7.2905 2.31949 6.6575 1.85649L5.621 2.68099C7.3175 4.01549 11.8615 7.52149 13.051 8.46749C13.0695 8.48199 13.081 8.49699 13.0945 8.51149L14.1415 7.66999C14.1115 7.62649 14.0685 7.58449 14.018 7.54499Z" fill="#E1E8ED"/>
</g>
<defs>
<clipPath id="clip0_1_14">
<rect width="18" height="18" fill="white" transform="translate(0.190002 0.169998)"/>
</clipPath>
</defs>
</svg>
