<svg width="251" height="31" viewBox="0 0 251 31" fill="none" xmlns="http://www.w3.org/2000/svg">
<rect x="1.47999" y="0.77002" width="249" height="29" rx="2" stroke="#767676"/>
<g clip-path="url(#clip0_1_29)">
<path d="M236.81 8.17801H242.39V23.424H224.39V8.17801H229.97V7.11601H231.23V8.17801H235.55V7.11601H236.81V8.17801ZM229.97 9.43801H225.668V11.562H241.112V9.43801H236.81V10.284H235.55V9.43801H231.23V10.5H229.97V9.43801ZM225.668 22.146H241.112V12.84H225.668V22.146ZM228.512 20.454V18.348H230.636V20.454H228.512ZM232.328 20.454V18.348H234.452V20.454H232.328ZM236.144 20.454V18.348H238.268V20.454H236.144ZM232.328 16.638V14.532H234.452V16.638H232.328ZM236.144 16.638V14.532H238.268V16.638H236.144ZM228.512 16.638V14.532H230.636V16.638H228.512Z" fill="#3A3A3A"/>
</g>
<defs>
<clipPath id="clip0_1_29">
<rect width="18" height="18" fill="white" transform="matrix(1 0 0 -1 224.39 24.27)"/>
</clipPath>
</defs>
</svg>
